:FULLY-SPECIFIED
:FORCE-ALL-JOINTS-BE-3DOF
:DEGREES
918
root -0.210839 14.1234 -36.3288 372.36 -27.0247 343.56
lfemur -64.3433 31.4038 -0.402995
ltibia 69.7628 0 0
lfoot -6.85406 -9.70034 0
ltoes -9.48419 0 0
rfemur 6.08983 -8.40268 13.2886
rtibia 38.6485 0 0
rfoot -22.4712 -28.8859 0
rtoes -27.5781 0 0
lowerback 11.3786 -0.0465073 6.72715
upperback -1.57719 1.28851 5.65626
thorax -8.10167 0.440213 2.01771
lowerneck -3.8022 7.80401 2.56635
upperneck 4.21212 10.3152 -0.853855
head 2.15815 5.15933 -0.373212
lclavicle -5.14358e-15 1.19271e-15 0
lhumerus 10.5247 1.60503 71.4021
lradius 17.7651 0 0
lwrist -35.6415 0 0
lhand -27.8423 29.0423 0
lfingers 7.12502 0 0
lthumb -1.23341 58.997 0
rclavicle -5.14358e-15 1.19271e-15 0
rhumerus -76.7868 21.4712 -96.3169
rradius 110.142 0 0
rwrist -67.8445 0 0
rhand -10.9748 -24.5433 0
rfingers 7.12502 0 0
rthumb 15.0448 -53.9763 0
919
root -0.202179 14.1141 -36.3216 372.331 -26.9884 343.51
lfemur -64.4547 31.4916 -0.448226
ltibia 69.9389 0 0
lfoot -6.9114 -9.80463 0
ltoes -9.23993 0 0
rfemur 6.16361 -8.40784 13.2842
rtibia 38.6544 0 0
rfoot -22.4682 -28.8935 0
rtoes -27.6203 0 0
lowerback 11.3542 -0.0641266 6.75743
upperback -1.56125 1.26898 5.7138
thorax -8.07185 0.431233 2.0659
lowerneck -3.81244 7.80811 2.61174
upperneck 4.26764 10.3194 -0.880874
head 2.18268 5.16147 -0.386653
lclavicle -6.15526e-15 8.51929e-17 0
lhumerus 10.4041 0.995371 71.6873
lradius 17.774 0 0
lwrist -34.9287 0 0
lhand -27.5266 28.9293 0
lfingers 7.12502 0 0
lthumb -0.928511 58.8873 0
rclavicle -6.15526e-15 8.51929e-17 0
rhumerus -76.7914 21.4487 -96.2706
rradius 110.103 0 0
rwrist -67.8107 0 0
rhand -10.9427 -24.5753 0
rfingers 7.12502 0 0
rthumb 15.0757 -54.0061 0
920
root -0.193519 14.1048 -36.3145 372.302 -26.9521 343.459
lfemur -64.566 31.5795 -0.493456
ltibia 70.1149 0 0
lfoot -6.96873 -9.90893 0
ltoes -8.99567 0 0
rfemur 6.23739 -8.413 13.2797
rtibia 38.6602 0 0
rfoot -22.4651 -28.9012 0
rtoes -27.6625 0 0
lowerback 11.3298 -0.0817458 6.78771
upperback -1.5453 1.24945 5.77134
thorax -8.04203 0.422252 2.11408
lowerneck -3.82268 7.81222 2.65712
upperneck 4.32316 10.3237 -0.907893
head 2.20721 5.16361 -0.400094
lclavicle -7.16693e-15 -1.02232e-15 0
lhumerus 10.2835 0.38571 71.9724
lradius 17.783 0 0
lwrist -34.2158 0 0
lhand -27.2109 28.8163 0
lfingers 7.12502 0 0
lthumb -0.623616 58.7776 0
rclavicle -7.16693e-15 -1.02232e-15 0
rhumerus -76.7959 21.4262 -96.2244
rradius 110.064 0 0
rwrist -67.7768 0 0
rhand -10.9105 -24.6074 0
rfingers 7.12502 0 0
rthumb 15.1067 -54.0359 0
921
root -0.184859 14.0955 -36.3074 372.274 -26.9158 343.408
lfemur -64.6773 31.6674 -0.538687
ltibia 70.291 0 0
lfoot -7.02607 -10.0132 0
ltoes -8.75141 0 0
rfemur 6.31117 -8.41816 13.2753
rtibia 38.6661 0 0
rfoot -22.4621 -28.9088 0
rtoes -27.7047 0 0
lowerback 11.3054 -0.099365 6.818
upperback -1.52935 1.22992 5.82888
thorax -8.01221 0.413271 2.16227
lowerneck -3.83292 7.81633 2.70251
upperneck 4.37868 10.328 -0.934913
head 2.23174 5.16575 -0.413535
lclavicle -8.1786e-15 -2.12983e-15 0
lhumerus 10.1628 -0.223952 72.2575
lradius 17.7919 0 0
lwrist -33.503 0 0
lhand -26.8952 28.7033 0
lfingers 7.12502 0 0
lthumb -0.318721 58.6679 0
rclavicle -8.1786e-15 -2.12983e-15 0
rhumerus -76.8004 21.4037 -96.1781
rradius 110.025 0 0
rwrist -67.743 0 0
rhand -10.8784 -24.6395 0
rfingers 7.12502 0 0
rthumb 15.1376 -54.0657 0
922
root -0.176198 14.0862 -36.3003 372.245 -26.8795 343.358
lfemur -64.7887 31.7553 -0.583918
ltibia 70.4671 0 0
lfoot -7.0834 -10.1175 0
ltoes -8.50715 0 0
rfemur 6.38495 -8.42332 13.2708
rtibia 38.672 0 0
rfoot -22.459 -28.9164 0
rtoes -27.7469 0 0
lowerback 11.281 -0.116984 6.84828
upperback -1.5134 1.21039 5.88641
thorax -7.98239 0.40429 2.21045
lowerneck -3.84317 7.82044 2.74789
upperneck 4.4342 10.3323 -0.961932
head 2.25626 5.16788 -0.426975
lclavicle -9.19028e-15 -3.23735e-15 0
lhumerus 10.0422 -0.833614 72.5426
lradius 17.8009 0 0
lwrist -32.7902 0 0
lhand -26.5794 28.5902 0
lfingers 7.12502 0 0
lthumb -0.0138257 58.5582 0
rclavicle -9.19028e-15 -3.23735e-15 0
rhumerus -76.805 21.3813 -96.1318
rradius 109.985 0 0
rwrist -67.7091 0 0
rhand -10.8463 -24.6716 0
rfingers 7.12502 0 0
rthumb 15.1686 -54.0955 0
923
root -0.167538 14.0768 -36.2931 372.216 -26.8433 343.307
lfemur -64.9 31.8431 -0.629149
ltibia 70.6432 0 0
lfoot -7.14074 -10.2218 0
ltoes -8.2629 0 0
rfemur 6.45872 -8.42848 13.2664
rtibia 38.6779 0 0
rfoot -22.456 -28.924 0
rtoes -27.789 0 0
lowerback 11.2566 -0.134604 6.87856
upperback -1.49746 1.19086 5.94395
thorax -7.95257 0.39531 2.25864
lowerneck -3.85341 7.82454 2.79328
upperneck 4.48972 10.3365 -0.988951
head 2.28079 5.17002 -0.440416
lclavicle -1.0202e-14 -4.34486e-15 0
lhumerus 9.92155 -1.44328 72.8278
lradius 17.8098 0 0
lwrist -32.0774 0 0
lhand -26.2637 28.4772 0
lfingers 7.12502 0 0
lthumb 0.29107 58.4484 0
rclavicle -1.0202e-14 -4.34486e-15 0
rhumerus -76.8095 21.3588 -96.0855
rradius 109.946 0 0
rwrist -67.6753 0 0
rhand -10.8142 -24.7036 0
rfingers 7.12502 0 0
rthumb 15.1995 -54.1252 0
924
root -0.158878 14.0675 -36.286 372.188 -26.807 343.257
lfemur -65.0114 31.931 -0.674379
ltibia 70.8193 0 0
lfoot -7.19807 -10.3261 0
ltoes -8.01864 0 0
rfemur 6.5325 -8.43364 13.2619
rtibia 38.6837 0 0
rfoot -22.4529 -28.9317 0
rtoes -27.8312 0 0
lowerback 11.2322 -0.152223 6.90885
upperback -1.48151 1.17133 6.00149
thorax -7.92275 0.386329 2.30682
lowerneck -3.86365 7.82865 2.83866
upperneck 4.54524 10.3408 -1.01597
head 2.30532 5.17216 -0.453857
lclavicle -1.12136e-14 -5.45238e-15 0
lhumerus 9.80091 -2.05294 73.1129
lradius 17.8188 0 0
lwrist -31.3645 0 0
lhand -25.948 28.3642 0
lfingers 7.12502 0 0
lthumb 0.595965 58.3387 0
rclavicle -1.12136e-14 -5.45238e-15 0
rhumerus -76.8141 21.3363 -96.0393
rradius 109.907 0 0
rwrist -67.6414 0 0
rhand -10.782 -24.7357 0
rfingers 7.12502 0 0
rthumb 15.2305 -54.155 0
925
root -0.150218 14.0582 -36.2789 372.159 -26.7707 343.206
lfemur -65.1227 32.0189 -0.71961
ltibia 70.9954 0 0
lfoot -7.25541 -10.4304 0
ltoes -7.77438 0 0
rfemur 6.60628 -8.4388 13.2575
rtibia 38.6896 0 0
rfoot -22.4499 -28.9393 0
rtoes -27.8734 0 0
lowerback 11.2078 -0.169842 6.93913
upperback -1.46556 1.1518 6.05903
thorax -7.89293 0.377348 2.35501
lowerneck -3.87389 7.83276 2.88405
upperneck 4.60076 10.3451 -1.04299
head 2.32985 5.1743 -0.467298
lclavicle -1.22253e-14 -6.55989e-15 0
lhumerus 9.68028 -2.6626 73.398
lradius 17.8277 0 0
lwrist -30.6517 0 0
lhand -25.6323 28.2512 0
lfingers 7.12502 0 0
lthumb 0.90086 58.229 0
rclavicle -1.22253e-14 -6.55989e-15 0
rhumerus -76.8186 21.3138 -95.993
rradius 109.868 0 0
rwrist -67.6076 0 0
rhand -10.7499 -24.7678 0
rfingers 7.12502 0 0
rthumb 15.2614 -54.1848 0
926
root -0.140495 14.0506 -36.267 372.171 -26.7896 343.175
lfemur -65.2308 32.0864 -0.780165
ltibia 71.178 0 0
lfoot -7.27291 -10.4519 0
ltoes -7.51793 0 0
rfemur 6.63966 -8.48097 13.1804
rtibia 38.6811 0 0
rfoot -22.4916 -28.8401 0
rtoes -28.0227 0 0
lowerback 11.1832 -0.187939 6.96674
upperback -1.46147 1.13123 6.11919
thorax -7.87562 0.367461 2.40791
lowerneck -3.87389 7.8425 2.90575
upperneck 4.67212 10.3589 -1.06566
head 2.35706 5.1809 -0.475517
lclavicle -1.18064e-14 -8.36789e-15 0
lhumerus 9.65586 -5.17331 73.6486
lradius 18.9633 0 0
lwrist -28.5772 0 0
lhand -25.5237 28.432 0
lfingers 7.12502 0 0
lthumb 1.00579 58.4088 0
rclavicle -1.18064e-14 -8.36789e-15 0
rhumerus -76.8141 21.3315 -95.9773
rradius 109.895 0 0
rwrist -67.5787 0 0
rhand -10.777 -24.7654 0
rfingers 7.12502 0 0
rthumb 15.2353 -54.1843 0
927
root -0.130772 14.043 -36.255 372.183 -26.8084 343.143
lfemur -65.339 32.1539 -0.84072
ltibia 71.3607 0 0
lfoot -7.29042 -10.4734 0
ltoes -7.26147 0 0
rfemur 6.67303 -8.52314 13.1033
rtibia 38.6726 0 0
rfoot -22.5333 -28.7409 0
rtoes -28.172 0 0
lowerback 11.1586 -0.206035 6.99435
upperback -1.45739 1.11066 6.17935
thorax -7.85831 0.357574 2.4608
lowerneck -3.8739 7.85224 2.92746
upperneck 4.74349 10.3726 -1.08834
head 2.38427 5.18751 -0.483735
lclavicle -1.13876e-14 -1.01759e-14 0
lhumerus 9.63144 -7.68402 73.8991
lradius 20.0989 0 0
lwrist -26.5027 0 0
lhand -25.415 28.6127 0
lfingers 7.12502 0 0
lthumb 1.11071 58.5885 0
rclavicle -1.13876e-14 -1.01759e-14 0
rhumerus -76.8095 21.3492 -95.9617
rradius 109.921 0 0
rwrist -67.5497 0 0
rhand -10.8041 -24.7629 0
rfingers 7.12502 0 0
rthumb 15.2092 -54.1838 0
928
root -0.121048 14.0354 -36.2431 372.195 -26.8273 343.112
lfemur -65.4471 32.2213 -0.901274
ltibia 71.5433 0 0
lfoot -7.30792 -10.4949 0
ltoes -7.00502 0 0
rfemur 6.70641 -8.56531 13.0262
rtibia 38.6642 0 0
rfoot -22.5751 -28.6417 0
rtoes -28.3213 0 0
lowerback 11.134 -0.224132 7.02196
upperback -1.4533 1.0901 6.23951
thorax -7.84101 0.347686 2.5137
lowerneck -3.8739 7.86198 2.94916
upperneck 4.81485 10.3864 -1.11101
head 2.41148 5.19411 -0.491954
lclavicle -1.09687e-14 -1.19839e-14 0
lhumerus 9.60703 -10.1947 74.1497
lradius 21.2345 0 0
lwrist -24.4282 0 0
lhand -25.3064 28.7935 0
lfingers 7.12502 0 0
lthumb 1.21564 58.7683 0
rclavicle -1.09687e-14 -1.19839e-14 0
rhumerus -76.805 21.3668 -95.946
rradius 109.948 0 0
rwrist -67.5208 0 0
rhand -10.8312 -24.7605 0
rfingers 7.12502 0 0
rthumb 15.1831 -54.1833 0
929
root -0.111325 14.0278 -36.2311 372.207 -26.8462 343.08
lfemur -65.5552 32.2888 -0.961829
ltibia 71.726 0 0
lfoot -7.32543 -10.5163 0
ltoes -6.74856 0 0
rfemur 6.73978 -8.60747 12.9491
rtibia 38.6557 0 0
rfoot -22.6168 -28.5425 0
rtoes -28.4706 0 0
lowerback 11.1094 -0.242228 7.04957
upperback -1.44922 1.06953 6.29967
thorax -7.8237 0.337799 2.56659
lowerneck -3.87391 7.87172 2.97087
upperneck 4.88622 10.4001 -1.13369
head 2.43868 5.20072 -0.500172
lclavicle -1.05498e-14 -1.37919e-14 0
lhumerus 9.58261 -12.7054 74.4002
lradius 22.37 0 0
lwrist -22.3537 0 0
lhand -25.1977 28.9742 0
lfingers 7.12502 0 0
lthumb 1.32056 58.9481 0
rclavicle -1.05498e-14 -1.37919e-14 0
rhumerus -76.8005 21.3845 -95.9303
rradius 109.974 0 0
rwrist -67.4918 0 0
rhand -10.8582 -24.758 0
rfingers 7.12502 0 0
rthumb 15.157 -54.1828 0
930
root -0.101602 14.0202 -36.2192 372.219 -26.865 343.049
lfemur -65.6633 32.3563 -1.02238
ltibia 71.9086 0 0
lfoot -7.34293 -10.5378 0
ltoes -6.49211 0 0
rfemur 6.77316 -8.64964 12.872
rtibia 38.6472 0 0
rfoot -22.6585 -28.4433 0
rtoes -28.6199 0 0
lowerback 11.0848 -0.260325 7.07718
upperback -1.44513 1.04896 6.35983
thorax -7.80639 0.327912 2.61949
lowerneck -3.87391 7.88146 2.99257
upperneck 4.95758 10.4139 -1.15636
head 2.46589 5.20732 -0.508391
lclavicle -1.0131e-14 -1.55999e-14 0
lhumerus 9.55819 -15.2161 74.6508
lradius 23.5056 0 0
lwrist -20.2792 0 0
lhand -25.0891 29.155 0
lfingers 7.12502 0 0
lthumb 1.42549 59.1279 0
rclavicle -1.0131e-14 -1.55999e-14 0
rhumerus -76.7959 21.4022 -95.9146
rradius 110.001 0 0
rwrist -67.4629 0 0
rhand -10.8853 -24.7556 0
rfingers 7.12502 0 0
rthumb 15.1309 -54.1823 0
931
root -0.0918789 14.0126 -36.2073 372.231 -26.8839 343.018
lfemur -65.7715 32.4238 -1.08294
ltibia 72.0913 0 0
lfoot -7.36043 -10.5593 0
ltoes -6.23565 0 0
rfemur 6.80654 -8.69181 12.795
rtibia 38.6387 0 0
rfoot -22.7002 -28.3442 0
rtoes -28.7691 0 0
lowerback 11.0602 -0.278421 7.1048
upperback -1.44105 1.02839 6.42
thorax -7.78908 0.318025 2.67238
lowerneck -3.87391 7.8912 3.01428
upperneck 5.02895 10.4277 -1.17904
head 2.4931 5.21393 -0.51661
lclavicle -9.71208e-15 -1.74079e-14 0
lhumerus 9.53377 -17.7269 74.9014
lradius 24.6412 0 0
lwrist -18.2047 0 0
lhand -24.9804 29.3357 0
lfingers 7.12502 0 0
lthumb 1.53041 59.3076 0
rclavicle -9.71208e-15 -1.74079e-14 0
rhumerus -76.7914 21.4199 -95.899
rradius 110.027 0 0
rwrist -67.434 0 0
rhand -10.9124 -24.7531 0
rfingers 7.12502 0 0
rthumb 15.1048 -54.1818 0
